<svg width="8" height="8" viewBox="0 0 8 8" fill="none" xmlns="http://www.w3.org/2000/svg">
<g opacity="0.7">
<path fill-rule="evenodd" clip-rule="evenodd" d="M2.66737 1.51761C3.56617 1.44991 4.46895 1.45437 5.36704 1.53094L5.90837 1.57694C6.10697 1.59393 6.29408 1.67718 6.43966 1.81332C6.58523 1.94947 6.68081 2.1306 6.71104 2.32761L6.74504 2.55061C6.86071 3.30658 6.84989 4.07652 6.71304 4.82894C6.68045 5.00892 6.58565 5.17171 6.4452 5.28888C6.30476 5.40605 6.12761 5.47014 5.94471 5.46994H2.95271C2.88371 5.46994 2.81604 5.48694 2.75537 5.51961L1.45171 6.22028C1.41361 6.24075 1.37086 6.25098 1.32762 6.24999C1.28439 6.24899 1.24215 6.2368 1.20504 6.2146C1.16792 6.1924 1.1372 6.16095 1.11588 6.12333C1.09455 6.0857 1.08335 6.04319 1.08337 5.99994V3.16094C1.08346 2.74657 1.24008 2.34753 1.52188 2.04372C1.80368 1.73992 2.18984 1.55379 2.60304 1.52261L2.66737 1.51761ZM2.66671 3.16661C2.5562 3.16661 2.45022 3.21051 2.37208 3.28865C2.29394 3.36679 2.25004 3.47277 2.25004 3.58328C2.25004 3.69378 2.29394 3.79976 2.37208 3.8779C2.45022 3.95605 2.5562 3.99994 2.66671 3.99994C2.77721 3.99994 2.8832 3.95605 2.96134 3.8779C3.03948 3.79976 3.08337 3.69378 3.08337 3.58328C3.08337 3.47277 3.03948 3.36679 2.96134 3.28865C2.8832 3.21051 2.77721 3.16661 2.66671 3.16661ZM4.00004 3.16661C3.88953 3.16661 3.78355 3.21051 3.70541 3.28865C3.62727 3.36679 3.58337 3.47277 3.58337 3.58328C3.58337 3.69378 3.62727 3.79976 3.70541 3.8779C3.78355 3.95605 3.88953 3.99994 4.00004 3.99994C4.11055 3.99994 4.21653 3.95605 4.29467 3.8779C4.37281 3.79976 4.41671 3.69378 4.41671 3.58328C4.41671 3.47277 4.37281 3.36679 4.29467 3.28865C4.21653 3.21051 4.11055 3.16661 4.00004 3.16661ZM4.91671 3.58328C4.91671 3.47277 4.96061 3.36679 5.03875 3.28865C5.11689 3.21051 5.22287 3.16661 5.33337 3.16661C5.44388 3.16661 5.54986 3.21051 5.628 3.28865C5.70614 3.36679 5.75004 3.47277 5.75004 3.58328C5.75004 3.69378 5.70614 3.79976 5.628 3.8779C5.54986 3.95605 5.44388 3.99994 5.33337 3.99994C5.22287 3.99994 5.11689 3.95605 5.03875 3.8779C4.96061 3.79976 4.91671 3.69378 4.91671 3.58328Z" fill="black"/>
</g>
</svg>
