<svg width="17" height="17" viewBox="0 0 17 17" fill="none" xmlns="http://www.w3.org/2000/svg">
<path d="M4.48163 13.4583C4.38151 13.4583 4.29746 13.4243 4.22946 13.3563C4.16146 13.2883 4.12746 13.204 4.12746 13.1035C4.12746 13.0029 4.16146 12.9188 4.22946 12.8513C4.29746 12.7838 4.38151 12.75 4.48163 12.75H12.5184C12.619 12.75 12.703 12.784 12.7705 12.852C12.8381 12.92 12.8721 13.0043 12.8725 13.1049C12.873 13.2055 12.839 13.2895 12.7705 13.357C12.7021 13.4246 12.618 13.4583 12.5184 13.4583H4.48163ZM5.032 11.4155C4.75339 11.4155 4.51067 11.3281 4.30383 11.1534C4.097 10.9787 3.96431 10.7568 3.90575 10.4876L3.06 6.00313C3.03639 6.01257 3.00994 6.01776 2.98067 6.01871C2.95092 6.02013 2.92424 6.02083 2.90062 6.02083C2.67821 6.02083 2.49333 5.94528 2.346 5.79417C2.19867 5.64306 2.125 5.45983 2.125 5.2445C2.125 5.02114 2.1989 4.83131 2.34671 4.675C2.49404 4.51917 2.67915 4.44125 2.90204 4.44125C3.12493 4.44125 3.31453 4.51917 3.47083 4.675C3.62667 4.83131 3.70458 5.02114 3.70458 5.2445C3.70458 5.29361 3.70269 5.33918 3.69892 5.38121C3.69514 5.42324 3.68121 5.46479 3.65712 5.50588L5.61212 6.29283C5.70279 6.32919 5.79369 6.33392 5.88483 6.307C5.9755 6.27961 6.05247 6.22507 6.11575 6.14338L8.02967 3.55088C7.92719 3.48382 7.84597 3.39504 7.786 3.28454C7.72603 3.17451 7.69604 3.05575 7.69604 2.92825C7.69604 2.70536 7.77419 2.51576 7.9305 2.35946C8.08633 2.20315 8.27593 2.125 8.49929 2.125C8.72218 2.125 8.91201 2.20292 9.06879 2.35875C9.22557 2.51458 9.30396 2.70347 9.30396 2.92542C9.30396 3.05953 9.27397 3.18042 9.214 3.28808C9.15403 3.39669 9.0728 3.48429 8.97033 3.55088L10.8842 6.14338C10.9475 6.22507 11.0245 6.27938 11.1152 6.30629C11.2063 6.33415 11.2972 6.3299 11.3879 6.29354L13.3429 5.50588C13.3301 5.4681 13.319 5.42678 13.3096 5.38192C13.3001 5.33658 13.2954 5.29078 13.2954 5.2445C13.2954 5.02114 13.3691 4.83131 13.5164 4.675C13.6638 4.51917 13.8489 4.44125 14.0717 4.44125C14.2946 4.44125 14.4842 4.51917 14.6405 4.675C14.7968 4.83131 14.875 5.02114 14.875 5.2445C14.875 5.45889 14.7966 5.64188 14.6398 5.79346C14.4831 5.94504 14.2927 6.02083 14.0689 6.02083C14.051 6.02083 14.0307 6.018 14.008 6.01233C13.9853 6.00667 13.9603 6.0036 13.9329 6.00313L13.0942 10.4869C13.0352 10.757 12.9025 10.9792 12.6962 11.1534C12.4898 11.3277 12.2471 11.415 11.968 11.4155H5.032Z" fill="#1E1E1E"/>
</svg>
