<svg width="15" height="15" viewBox="0 0 15 15" fill="none" xmlns="http://www.w3.org/2000/svg">
<path d="M13.2812 7.50005H5.55938M2.83375 7.50005H1.71875M2.83375 7.50005C2.83375 7.1387 2.9773 6.79214 3.23282 6.53662C3.48834 6.2811 3.83489 6.13755 4.19625 6.13755C4.55761 6.13755 4.90416 6.2811 5.15968 6.53662C5.4152 6.79214 5.55875 7.1387 5.55875 7.50005C5.55875 7.86141 5.4152 8.20797 5.15968 8.46349C4.90416 8.719 4.55761 8.86255 4.19625 8.86255C3.83489 8.86255 3.48834 8.719 3.23282 8.46349C2.9773 8.20797 2.83375 7.86141 2.83375 7.50005ZM13.2812 11.6294H9.68875M9.68875 11.6294C9.68875 11.9909 9.54486 12.3378 9.28928 12.5934C9.0337 12.849 8.68707 12.9926 8.32563 12.9926C7.96427 12.9926 7.61771 12.8484 7.36219 12.5929C7.10667 12.3373 6.96312 11.9908 6.96312 11.6294M9.68875 11.6294C9.68875 11.268 9.54486 10.9217 9.28928 10.6661C9.0337 10.4105 8.68707 10.2669 8.32563 10.2669C7.96427 10.2669 7.61771 10.4105 7.36219 10.666C7.10667 10.9215 6.96312 11.2681 6.96312 11.6294M6.96312 11.6294H1.71875M13.2812 3.37068H11.3406M8.615 3.37068H1.71875M8.615 3.37068C8.615 3.00932 8.75855 2.66276 9.01407 2.40725C9.26959 2.15173 9.61614 2.00818 9.9775 2.00818C10.1564 2.00818 10.3336 2.04342 10.4989 2.11189C10.6642 2.18036 10.8144 2.28073 10.9409 2.40725C11.0675 2.53377 11.1678 2.68397 11.2363 2.84927C11.3048 3.01458 11.34 3.19175 11.34 3.37068C11.34 3.5496 11.3048 3.72678 11.2363 3.89208C11.1678 4.05739 11.0675 4.20759 10.9409 4.33411C10.8144 4.46063 10.6642 4.56099 10.4989 4.62946C10.3336 4.69794 10.1564 4.73318 9.9775 4.73318C9.61614 4.73318 9.26959 4.58963 9.01407 4.33411C8.75855 4.07859 8.615 3.73204 8.615 3.37068Z" stroke="black" stroke-opacity="0.6" stroke-width="1.5" stroke-miterlimit="10" stroke-linecap="round"/>
</svg>
