<svg width="18" height="18" viewBox="0 0 18 18" fill="none" xmlns="http://www.w3.org/2000/svg">
<path d="M9 4.12499L8.595 4.51499C8.64747 4.56943 8.71038 4.61273 8.77997 4.64231C8.84955 4.67189 8.92439 4.68713 9 4.68713C9.07561 4.68713 9.15045 4.67189 9.22003 4.64231C9.28962 4.61273 9.35253 4.56943 9.405 4.51499L9 4.12499ZM7.0695 13.7415C5.9325 12.8452 4.68975 11.97 3.7035 10.86C2.7375 9.77099 2.0625 8.50124 2.0625 6.85274H0.9375C0.9375 8.85224 1.77 10.3777 2.86275 11.607C3.93525 12.8145 5.30325 13.782 6.37275 14.625L7.0695 13.7415ZM2.0625 6.85274C2.0625 5.24024 2.97375 3.88724 4.218 3.31799C5.427 2.76524 7.0515 2.91149 8.595 4.51499L9.405 3.73574C7.575 1.83299 5.448 1.51874 3.75 2.29499C2.0895 3.05474 0.9375 4.81874 0.9375 6.85274H2.0625ZM6.37275 14.625C6.7575 14.928 7.17 15.2505 7.58775 15.495C8.0055 15.7395 8.4825 15.9375 9 15.9375V14.8125C8.7675 14.8125 8.4945 14.7225 8.1555 14.5237C7.81575 14.3257 7.464 14.0527 7.0695 13.7415L6.37275 14.625ZM11.6273 14.625C12.6968 13.7812 14.0648 12.8152 15.1373 11.607C16.23 10.377 17.0625 8.85224 17.0625 6.85274H15.9375C15.9375 8.50124 15.2625 9.77099 14.2965 10.86C13.3103 11.97 12.0675 12.8452 10.9305 13.7415L11.6273 14.625ZM17.0625 6.85274C17.0625 4.81874 15.9113 3.05474 14.25 2.29499C12.552 1.51874 10.4265 1.83299 8.595 3.73499L9.405 4.51499C10.9485 2.91224 12.573 2.76524 13.782 3.31799C15.0262 3.88724 15.9375 5.23949 15.9375 6.85274H17.0625ZM10.9305 13.7415C10.536 14.0527 10.1842 14.3257 9.8445 14.5237C9.50475 14.7217 9.2325 14.8125 9 14.8125V15.9375C9.5175 15.9375 9.9945 15.7387 10.4123 15.495C10.8308 15.2505 11.2425 14.928 11.6273 14.625L10.9305 13.7415Z" fill="#1E1E1E"/>
</svg>
